<svg width="112" height="106" viewBox="0 0 112 106" fill="none" xmlns="http://www.w3.org/2000/svg">
<g clip-path="url(#clip0_29_278)">
<path fill-rule="evenodd" clip-rule="evenodd" d="M21.3734 48.5832C24.9734 49.637 28.7894 49.85 32.4953 49.2039C36.2011 48.5578 39.6865 47.0719 42.6534 44.8732L42.9334 44.6524L53.1067 52.9999C53.4299 53.302 53.8659 53.4714 54.3201 53.4714C54.7743 53.4714 55.2102 53.302 55.5334 52.9999C55.8418 52.6888 56.0135 52.2782 56.0135 51.8515C56.0135 51.4249 55.8418 51.0143 55.5334 50.7032C52.5001 47.744 49.5134 44.7407 46.5267 41.8699C48.5826 39.8688 50.1398 37.458 51.0845 34.814C52.0292 32.17 52.3375 29.3595 51.9867 26.5882C51.3642 22.2499 49.5274 18.148 46.6667 14.7074C42.5447 10.143 37.8424 6.07835 32.6667 2.60572C32.338 2.31383 31.9042 2.15137 31.4534 2.15137C31.0027 2.15137 30.5688 2.31383 30.2401 2.60572C29.9317 2.91684 29.76 3.32744 29.76 3.75405C29.76 4.18066 29.9317 4.59126 30.2401 4.90238C34.9732 8.48723 39.2209 12.6112 42.8867 17.1807C45.0029 20.0445 46.3047 23.3755 46.6667 26.8532C46.8367 28.8343 46.5444 30.8265 45.8106 32.6888C45.0767 34.5511 43.9192 36.238 42.4201 37.6299C40.5067 35.7749 38.5934 33.9641 36.6334 32.1974C34.6734 30.4307 32.6667 28.4874 30.5201 26.7649C25.8534 22.7899 20.8601 19.0357 16.0534 15.0607C15.7683 14.8092 15.3931 14.6694 15.0034 14.6694C14.6137 14.6694 14.2385 14.8092 13.9534 15.0607C13.6845 15.3378 13.5353 15.7003 13.5353 16.0766C13.5353 16.4528 13.6845 16.8153 13.9534 17.0924C18.2001 21.5091 22.3067 26.1465 26.7401 30.3424C28.6068 32.1974 30.6134 34.0082 32.5734 35.7749L38.4067 40.9424C36.2494 42.5366 33.7424 43.6537 31.0696 44.2116C28.3967 44.7695 25.6258 44.7541 22.9601 44.1665C19.589 42.9988 16.5302 41.1443 14.0001 38.7341C9.89807 35.0415 6.12111 31.0386 2.70675 26.7649C2.58764 26.6165 2.43869 26.4919 2.26849 26.3982C2.09828 26.3045 1.91018 26.2435 1.715 26.2189C1.51982 26.1943 1.32143 26.2064 1.13123 26.2546C0.941028 26.3029 0.762783 26.3862 0.60675 26.4999C0.444571 26.6087 0.307825 26.748 0.205048 26.909C0.102271 27.0701 0.0356678 27.2494 0.00939449 27.4359C-0.0168789 27.6224 -0.00225826 27.812 0.0523439 27.9929C0.106946 28.1738 0.200358 28.3422 0.32675 28.4874C3.55489 33.1713 7.17543 37.6023 11.1534 41.7374C14.0182 44.6691 17.4994 47.001 21.3734 48.5832Z" fill="black"/>
<path fill-rule="evenodd" clip-rule="evenodd" d="M98.5601 49.3338C104.284 37.098 108.784 24.3813 112 11.3505C112.106 10.8015 112.029 10.2349 111.78 9.72913C111.53 9.22333 111.121 8.80323 110.609 8.52688C110.097 8.25052 109.507 8.13154 108.92 8.18638C108.333 8.24121 107.779 8.46716 107.333 8.83299C103.74 12.1013 91.8868 22.7455 77.7001 35.7747C71.4468 41.5163 64.7734 47.7438 58.1468 53.9272C36.3534 74.023 14.8401 94.3397 9.61343 100.037C9.34733 100.318 9.21012 100.688 9.232 101.065C9.25388 101.442 9.43305 101.795 9.73009 102.047C10.0271 102.299 10.4177 102.428 10.8159 102.408C11.2141 102.387 11.5873 102.217 11.8534 101.936C14.6534 99.0655 21.9334 92.3521 31.4068 83.8722L38.2201 77.733C40.0544 79.3491 42.0205 80.8259 44.1001 82.1497C46.6131 83.7759 49.2316 85.251 51.9401 86.5663C53.945 87.586 56.1 88.3155 58.3334 88.7305C59.9661 89.0398 61.6474 89.0398 63.2801 88.7305C66.9366 87.7748 70.2973 86.0027 73.0801 83.563C75.3335 81.693 77.4247 79.6548 79.3334 77.468C81.9934 80.648 84.5134 83.8722 87.2668 86.9638C89.1801 89.2163 91.3268 91.3805 93.3801 93.5447C96.5534 96.7688 99.7734 99.8605 102.713 103.129C102.848 103.297 103.017 103.438 103.209 103.545C103.402 103.652 103.615 103.721 103.836 103.75C104.057 103.779 104.282 103.766 104.497 103.712C104.713 103.659 104.916 103.566 105.093 103.438C105.271 103.31 105.421 103.151 105.533 102.969C105.646 102.786 105.719 102.585 105.75 102.376C105.78 102.167 105.767 101.954 105.71 101.75C105.653 101.545 105.555 101.354 105.42 101.185C102.9 97.5638 100.333 93.9863 97.5801 90.4972C96.4134 89.0396 95.2001 87.5822 93.8934 86.0805C92.5868 84.5788 91.2801 83.298 89.8801 82.0172C87.1734 79.4997 84.3268 77.1588 81.4334 74.818L83.6734 72.168C89.5953 65.1559 94.5942 57.4882 98.5601 49.3338ZM70.2801 80.2505C68.0309 82.282 65.3157 83.7936 62.3468 84.6672C60.9351 84.9829 59.4651 84.9829 58.0534 84.6672C56.519 84.311 55.0319 83.7924 53.6201 83.1213C51.0443 82.0515 48.5357 80.8423 46.1068 79.4997C44.2021 78.354 42.4064 77.0535 40.7401 75.613C52.8734 64.7922 66.9668 52.4255 79.3334 41.3838C89.1801 32.5505 98.0001 24.733 103.927 19.3005C101.341 28.8968 97.9705 38.2884 93.8468 47.3905C90.2142 55.2309 85.6253 62.6424 80.1734 69.4738C77.2388 73.4053 73.927 77.0719 70.2801 80.4272V80.2505Z" fill="black"/>
</g>
<defs>
<clipPath id="clip0_29_278">
<rect width="112" height="106" fill="white"/>
</clipPath>
</defs>
</svg>
