<svg width="134" height="49" viewBox="0 0 134 49" fill="none" xmlns="http://www.w3.org/2000/svg">
<rect x="0.5" y="0.5" width="133" height="48" stroke="black"/>
<path d="M17.623 30.5H15.6016V19.582H11.5V30.5H9.47852V17.7559H17.623V30.5ZM19.9965 21.3984H22.018V22.2188C22.4021 21.8737 22.7895 21.6165 23.1801 21.4473C23.5772 21.2715 24.0297 21.1836 24.5375 21.1836C25.1234 21.1836 25.6671 21.304 26.1684 21.5449C26.6697 21.7793 27.0993 22.1081 27.4574 22.5312C27.8155 22.9479 28.0987 23.4525 28.307 24.0449C28.5154 24.6309 28.6195 25.2689 28.6195 25.959C28.6195 26.6556 28.5154 27.2969 28.307 27.8828C28.0987 28.4688 27.8155 28.9733 27.4574 29.3965C27.0993 29.8132 26.6697 30.1387 26.1684 30.373C25.6671 30.6074 25.1234 30.7246 24.5375 30.7246C24.0297 30.7246 23.5772 30.6335 23.1801 30.4512C22.7895 30.2689 22.4021 30.0052 22.018 29.6602V34.1426H19.9965V21.3984ZM22.018 28.0586C22.2589 28.3255 22.5648 28.5339 22.9359 28.6836C23.3135 28.8268 23.6749 28.8984 24.0199 28.8984C24.7816 28.8984 25.4001 28.6283 25.8754 28.0879C26.3572 27.5475 26.598 26.8379 26.598 25.959C26.598 25.0801 26.3572 24.3672 25.8754 23.8203C25.4001 23.2734 24.7816 23 24.0199 23C23.6749 23 23.3135 23.0716 22.9359 23.2148C22.5648 23.3516 22.2589 23.5534 22.018 23.8203V28.0586ZM30.5145 21.3984H32.5359V27.6582L36.1199 21.3984H38.659V30.5H36.6375V23.8789L32.8582 30.5H30.5145V21.3984ZM49.177 30.5H47.1555V24.3379L45.8762 27.6191H44.3137L43.0539 24.3379V30.5H41.0324V21.3984H43.4348L45.0949 25.5195L46.7551 21.3984H49.177V30.5ZM52.9273 26.7207C53.025 27.3457 53.3212 27.8665 53.816 28.2832C54.3173 28.6934 54.9879 28.8984 55.8277 28.8984C56.4853 28.8984 57.0549 28.7975 57.5367 28.5957C58.025 28.3874 58.4449 28.1139 58.7965 27.7754L59.8316 29.2012C59.2457 29.7871 58.624 30.1875 57.9664 30.4023C57.3154 30.6172 56.6025 30.7246 55.8277 30.7246C55.1246 30.7246 54.4703 30.6074 53.8648 30.373C53.2594 30.1387 52.7353 29.8132 52.2926 29.3965C51.8499 28.9733 51.5016 28.472 51.2477 27.8926C51.0003 27.3132 50.8766 26.6686 50.8766 25.959C50.8766 25.2689 50.9905 24.6341 51.2184 24.0547C51.4527 23.4688 51.7783 22.9642 52.1949 22.541C52.6181 22.1113 53.1227 21.7793 53.7086 21.5449C54.2945 21.304 54.9423 21.1836 55.652 21.1836C56.3876 21.1836 57.0549 21.3105 57.6539 21.5645C58.2529 21.8118 58.7639 22.1732 59.1871 22.6484C59.6168 23.1237 59.9521 23.7064 60.193 24.3965C60.4339 25.0801 60.5543 25.8548 60.5543 26.7207H52.9273ZM58.2691 24.9434C58.165 24.3574 57.8622 23.8887 57.3609 23.5371C56.8596 23.179 56.29 23 55.652 23C55.0139 23 54.441 23.179 53.9332 23.5371C53.4254 23.8887 53.1194 24.3574 53.0152 24.9434H58.2691ZM70.2129 30.5H68.1914V26.7402H64.0898V30.5H62.0684V21.3984H64.0898V24.9238H68.1914V21.3984H70.2129V30.5ZM72.5863 21.3984H74.6078V27.6582L78.1918 21.3984H80.7309V30.5H78.7094V23.8789L74.9301 30.5H72.5863V21.3984ZM91.7078 26.0371H89.9012V23.2246H88.1824V28.6836H90.2039V30.5H84.1492V28.6836H86.1609V23.2246H84.4227V26.0371H82.6258V21.3984H91.7078V26.0371ZM102.245 27.6973C102.245 28.6217 101.952 29.3216 101.366 29.7969C100.78 30.2656 99.9602 30.5 98.9055 30.5H93.6223V21.3984H95.6438V24.9238H98.925C99.9667 24.9238 100.78 25.1549 101.366 25.6172C101.952 26.0729 102.245 26.7663 102.245 27.6973ZM100.224 27.7168C100.224 27.3848 100.107 27.1406 99.8723 26.9844C99.6379 26.8216 99.3221 26.7402 98.925 26.7402H95.6438V28.6836H98.925C99.3221 28.6836 99.6379 28.6022 99.8723 28.4395C100.107 28.2767 100.224 28.0358 100.224 27.7168Z" fill="black"/>
<path d="M113.667 27.8333L120.333 21.1666" stroke="black" stroke-width="1.25" stroke-linecap="round" stroke-linejoin="round"/>
<path d="M113.667 21.1666H120.333V27.8333" stroke="black" stroke-width="1.25" stroke-linecap="round" stroke-linejoin="round"/>
</svg>
