<svg width="110" height="51" viewBox="0 0 110 51" fill="none" xmlns="http://www.w3.org/2000/svg">
<rect x="0.5" y="0.5" width="109" height="50" stroke="black"/>
<path d="M23.2148 32.5L22.1592 29.0073H17.3076L16.2744 32.5H13.8374L18.4082 17.8442H21.0811L25.6519 32.5H23.2148ZM17.9253 26.9521H21.5415L19.7446 20.9102L17.9253 26.9521ZM27.146 22.0332H29.4707V22.9766C29.9124 22.5798 30.3579 22.284 30.8071 22.0894C31.2638 21.8872 31.7841 21.7861 32.3681 21.7861C33.042 21.7861 33.6671 21.9246 34.2436 22.2017C34.8201 22.4712 35.3143 22.8493 35.726 23.3359C36.1378 23.8151 36.4635 24.3953 36.7031 25.0767C36.9427 25.7505 37.0625 26.4842 37.0625 27.2778C37.0625 28.0789 36.9427 28.8164 36.7031 29.4902C36.4635 30.1641 36.1378 30.7443 35.726 31.231C35.3143 31.7101 34.8201 32.0845 34.2436 32.354C33.6671 32.6235 33.042 32.7583 32.3681 32.7583C31.7841 32.7583 31.2638 32.6535 30.8071 32.4438C30.3579 32.2342 29.9124 31.931 29.4707 31.5342V36.689H27.146V22.0332ZM29.4707 29.6924C29.7477 29.9993 30.0996 30.2389 30.5263 30.4111C30.9606 30.5758 31.3761 30.6582 31.7729 30.6582C32.6489 30.6582 33.3601 30.3475 33.9067 29.7261C34.4607 29.1047 34.7378 28.2886 34.7378 27.2778C34.7378 26.2671 34.4607 25.4473 33.9067 24.8184C33.3601 24.1895 32.6489 23.875 31.7729 23.875C31.3761 23.875 30.9606 23.9574 30.5263 24.1221C30.0996 24.2793 29.7477 24.5114 29.4707 24.8184V29.6924ZM39.2416 22.0332H41.5663V22.9766C42.0081 22.5798 42.4535 22.284 42.9028 22.0894C43.3595 21.8872 43.8798 21.7861 44.4638 21.7861C45.1376 21.7861 45.7628 21.9246 46.3393 22.2017C46.9158 22.4712 47.4099 22.8493 47.8217 23.3359C48.2335 23.8151 48.5592 24.3953 48.7987 25.0767C49.0383 25.7505 49.1581 26.4842 49.1581 27.2778C49.1581 28.0789 49.0383 28.8164 48.7987 29.4902C48.5592 30.1641 48.2335 30.7443 47.8217 31.231C47.4099 31.7101 46.9158 32.0845 46.3393 32.354C45.7628 32.6235 45.1376 32.7583 44.4638 32.7583C43.8798 32.7583 43.3595 32.6535 42.9028 32.4438C42.4535 32.2342 42.0081 31.931 41.5663 31.5342V36.689H39.2416V22.0332ZM41.5663 29.6924C41.8433 29.9993 42.1952 30.2389 42.622 30.4111C43.0562 30.5758 43.4718 30.6582 43.8686 30.6582C44.7446 30.6582 45.4558 30.3475 46.0024 29.7261C46.5564 29.1047 46.8334 28.2886 46.8334 27.2778C46.8334 26.2671 46.5564 25.4473 46.0024 24.8184C45.4558 24.1895 44.7446 23.875 43.8686 23.875C43.4718 23.875 43.0562 23.9574 42.622 24.1221C42.1952 24.2793 41.8433 24.5114 41.5663 24.8184V29.6924ZM59.5917 32.5H52.5614V30.4111H54.8524V19.9443H52.5614V17.8442H57.1771V30.4111H59.5917V32.5ZM73.2596 22.0332L68.745 34.5439C68.408 35.4499 67.9176 36.0713 67.2738 36.4082C66.6299 36.7451 65.8625 36.9136 64.9715 36.9136C64.6646 36.9136 64.3351 36.8836 63.9832 36.8237C63.6314 36.7638 63.2645 36.6628 62.8827 36.5205L63.3656 34.3867C63.6875 34.5065 63.9832 34.5889 64.2528 34.6338C64.5223 34.6862 64.7619 34.7124 64.9715 34.7124C65.6678 34.7124 66.1432 34.4054 66.3978 33.7915L66.8133 32.7808L62.8153 22.0332H65.2298L68.1048 29.9507L70.7664 22.0332H73.2596Z" fill="black"/>
<path d="M84.1667 28.8333L90.8334 22.1666" stroke="black" stroke-width="1.25" stroke-linecap="round" stroke-linejoin="round"/>
<path d="M84.1667 22.1666H90.8334V28.8333" stroke="black" stroke-width="1.25" stroke-linecap="round" stroke-linejoin="round"/>
</svg>
