<svg width="37" height="37" viewBox="0 0 37 37" fill="none" xmlns="http://www.w3.org/2000/svg">
<g opacity="0.65">
<path fill-rule="evenodd" clip-rule="evenodd" d="M23.8283 14.7919L14.8054 23.8148L13.1702 22.1796L22.1931 13.1567L23.8283 14.7919Z" fill="black"/>
<path fill-rule="evenodd" clip-rule="evenodd" d="M14.7995 13.1537L23.8284 22.1844L22.193 23.8194L13.1642 14.7887L14.7995 13.1537Z" fill="black"/>
<path fill-rule="evenodd" clip-rule="evenodd" d="M3.08331 18.5C3.08331 9.98565 9.98559 3.08337 18.5 3.08337C27.0144 3.08337 33.9166 9.98565 33.9166 18.5C33.9166 27.0144 27.0144 33.9167 18.5 33.9167C9.98559 33.9167 3.08331 27.0144 3.08331 18.5ZM18.5 5.39587C11.2627 5.39587 5.39581 11.2628 5.39581 18.5C5.39581 25.7373 11.2627 31.6042 18.5 31.6042C25.7372 31.6042 31.6041 25.7373 31.6041 18.5C31.6041 11.2628 25.7372 5.39587 18.5 5.39587Z" fill="black"/>
</g>
</svg>
