<svg width="242" height="60" viewBox="0 0 242 60" fill="none" xmlns="http://www.w3.org/2000/svg">
<path d="M4 4H123L238 0L242 4V60H4L0 56L4 32V4Z" fill="#7F563A"/>
<rect width="238" height="56" fill="#D5976E"/>
<path d="M69.3145 32.1553C69.0801 33.0928 68.7676 33.9424 68.377 34.7041C67.9863 35.4658 67.5078 36.1152 66.9414 36.6523C66.3848 37.1895 65.7305 37.6045 64.9785 37.8975C64.2363 38.1904 63.3818 38.3369 62.415 38.3369C61.0771 38.3369 59.9443 38.0635 59.0166 37.5166C58.0889 36.96 57.3271 36.2227 56.7314 35.3047C56.1455 34.377 55.7207 33.3223 55.457 32.1406C55.2031 30.9492 55.0762 29.7139 55.0762 28.4346C55.0762 27.1553 55.2031 25.9199 55.457 24.7285C55.7207 23.5371 56.1406 22.4873 56.7168 21.5791C57.3027 20.6709 58.0449 19.9434 58.9434 19.3965C59.8418 18.8398 60.9404 18.5615 62.2393 18.5615C62.6592 18.5615 63.084 18.6152 63.5137 18.7227C63.9434 18.8301 64.3438 18.9961 64.7148 19.2207C65.0859 19.4355 65.4082 19.7041 65.6816 20.0264C65.9648 20.3486 66.165 20.7197 66.2822 21.1396V18.8838H69.0215V26.1201H66.2822C66.2822 25.5244 66.209 24.9385 66.0625 24.3623C65.916 23.7764 65.6816 23.2588 65.3594 22.8096C65.0371 22.3604 64.6318 21.9941 64.1436 21.7109C63.6553 21.4277 63.0791 21.2861 62.415 21.2861C61.5557 21.2861 60.8525 21.4961 60.3057 21.916C59.7588 22.3359 59.3193 22.8877 58.9873 23.5713C58.6553 24.2549 58.4209 25.0215 58.2842 25.8711C58.1572 26.7207 58.0938 27.5752 58.0938 28.4346C58.0938 29.2939 58.1572 30.1533 58.2842 31.0127C58.4209 31.8721 58.6504 32.6436 58.9727 33.3271C59.2949 34.001 59.7344 34.5479 60.291 34.9678C60.8477 35.3877 61.5557 35.5977 62.415 35.5977C63.6553 35.5977 64.6074 35.2021 65.2715 34.4111C65.9453 33.6201 66.4824 32.5557 66.8828 31.2178L69.3145 32.1553ZM91.6621 38H87.8242L82.873 30.2656H81.4961V38H78.4639V18.8838H84.7627C86.8623 18.8838 88.4932 19.3672 89.6553 20.334C90.8174 21.291 91.3984 22.7119 91.3984 24.5967C91.3984 25.4365 91.2666 26.1787 91.0029 26.8232C90.749 27.458 90.3828 28.0049 89.9043 28.4639C89.4355 28.9229 88.8838 29.2891 88.249 29.5625C87.624 29.8262 86.9453 30.0068 86.2129 30.1045L91.6621 38ZM88.3662 24.5527C88.3662 23.5762 88.0439 22.8438 87.3994 22.3555C86.7646 21.8672 85.8857 21.623 84.7627 21.623H81.4961V27.5264H84.7627C85.8857 27.5264 86.7646 27.2822 87.3994 26.7939C88.0439 26.3057 88.3662 25.5586 88.3662 24.5527ZM113.058 38H100.841V18.8838H113.058V21.623H103.873V26.8965H111.036V29.6357H103.873V35.2754H113.058V38ZM133.867 38L132.49 33.4443H126.162L124.814 38H121.636L127.598 18.8838H131.084L137.046 38H133.867ZM126.968 30.7637H131.685L129.341 22.8828L126.968 30.7637ZM158.5 25.8564H155.79V21.623H153.212V35.2754H156.244V38H147.162V35.2754H150.18V21.623H147.572V25.8564H144.877V18.8838H158.5V25.8564ZM180.188 38H167.972V18.8838H180.188V21.623H171.004V26.8965H178.167V29.6357H171.004V35.2754H180.188V38Z" fill="white"/>
</svg>
