<svg width="242" height="60" viewBox="0 0 242 60" fill="none" xmlns="http://www.w3.org/2000/svg">
<path d="M4 4H123L238 0L242 4V60H4L0 56L4 32V4Z" fill="#7F563A"/>
<rect width="238" height="56" fill="#D5976E"/>
<path d="M68.355 31.1294C68.1597 31.9106 67.8993 32.6187 67.5737 33.2534C67.2482 33.8882 66.8494 34.4294 66.3774 34.877C65.9136 35.3245 65.3683 35.6704 64.7417 35.9146C64.1232 36.1587 63.4111 36.2808 62.6055 36.2808C61.4906 36.2808 60.5465 36.0529 59.7734 35.5972C59.0003 35.1333 58.3656 34.5189 57.8691 33.7539C57.3809 32.9808 57.0269 32.1019 56.8071 31.1172C56.5955 30.1243 56.4897 29.0949 56.4897 28.0288C56.4897 26.9627 56.5955 25.9333 56.8071 24.9404C57.0269 23.9476 57.3768 23.0728 57.8569 22.3159C58.3452 21.5591 58.9637 20.9528 59.7124 20.4971C60.4611 20.0332 61.3766 19.8013 62.459 19.8013C62.8089 19.8013 63.1629 19.846 63.521 19.9355C63.8791 20.0251 64.2127 20.1634 64.522 20.3506C64.8312 20.5296 65.0998 20.7534 65.3276 21.022C65.5636 21.2905 65.7305 21.5998 65.8281 21.9497V20.0698H68.1108V26.1001H65.8281C65.8281 25.6037 65.7671 25.1154 65.645 24.6353C65.5229 24.147 65.3276 23.7157 65.0591 23.3413C64.7905 22.967 64.4528 22.6618 64.0459 22.4258C63.639 22.1898 63.1589 22.0718 62.6055 22.0718C61.8893 22.0718 61.3034 22.2467 60.8477 22.5967C60.3919 22.9466 60.0257 23.4064 59.749 23.9761C59.4723 24.5457 59.277 25.1846 59.1631 25.8926C59.0573 26.6006 59.0044 27.3127 59.0044 28.0288C59.0044 28.745 59.0573 29.4611 59.1631 30.1772C59.277 30.8934 59.4683 31.5363 59.7368 32.106C60.0054 32.6675 60.3716 33.1232 60.8354 33.4731C61.2993 33.8231 61.8893 33.998 62.6055 33.998C63.639 33.998 64.4325 33.6685 64.9858 33.0093C65.5474 32.3501 65.995 31.4631 66.3286 30.3481L68.355 31.1294ZM74.9785 28.0288C74.9785 26.9627 75.0924 25.9333 75.3203 24.9404C75.5482 23.9476 75.9022 23.0728 76.3823 22.3159C76.8625 21.5591 77.4891 20.9528 78.2622 20.4971C79.0435 20.0332 79.9834 19.8013 81.082 19.8013C82.1807 19.8013 83.1165 20.0332 83.8896 20.4971C84.6709 20.9528 85.3057 21.5591 85.7939 22.3159C86.2822 23.0728 86.6362 23.9476 86.856 24.9404C87.0757 25.9333 87.1855 26.9627 87.1855 28.0288C87.1855 29.0949 87.0757 30.1243 86.856 31.1172C86.6362 32.1019 86.2863 32.9808 85.8062 33.7539C85.326 34.5189 84.6953 35.1333 83.9141 35.5972C83.141 36.0529 82.1969 36.2808 81.082 36.2808C79.9671 36.2808 79.019 36.0529 78.2378 35.5972C77.4647 35.1333 76.834 34.5189 76.3457 33.7539C75.8656 32.9808 75.5197 32.1019 75.3081 31.1172C75.0884 30.1243 74.9785 29.0949 74.9785 28.0288ZM77.5054 28.0288C77.5054 28.745 77.5583 29.4611 77.6641 30.1772C77.778 30.8934 77.9652 31.5363 78.2256 32.106C78.4941 32.6675 78.8563 33.1232 79.312 33.4731C79.7759 33.8231 80.3659 33.998 81.082 33.998C81.7982 33.998 82.3841 33.8231 82.8398 33.4731C83.3037 33.1232 83.6659 32.6675 83.9263 32.106C84.1948 31.5363 84.382 30.8934 84.4878 30.1772C84.6017 29.4611 84.6587 28.745 84.6587 28.0288C84.6587 27.3127 84.6017 26.6006 84.4878 25.8926C84.382 25.1846 84.1948 24.5457 83.9263 23.9761C83.6659 23.4064 83.2996 22.9466 82.8276 22.5967C82.3638 22.2467 81.7819 22.0718 81.082 22.0718C79.9183 22.0718 79.0312 22.5967 78.4209 23.6465C77.8105 24.6963 77.5054 26.1571 77.5054 28.0288ZM105.259 31.6787C105.259 32.3786 105.117 33.0133 104.832 33.583C104.547 34.1445 104.165 34.6247 103.685 35.0234C103.213 35.4222 102.663 35.7314 102.037 35.9512C101.418 36.1709 100.767 36.2808 100.083 36.2808C99.3185 36.2808 98.6024 36.179 97.9351 35.9756C97.2677 35.764 96.6777 35.4425 96.165 35.0112C95.6605 34.5799 95.2495 34.0347 94.9321 33.3755C94.6147 32.7082 94.4235 31.9147 94.3584 30.9951L96.7266 30.6045C96.8079 31.6543 97.1497 32.4844 97.752 33.0947C98.3542 33.6969 99.1313 33.998 100.083 33.998C100.889 33.998 101.528 33.7865 102 33.3633C102.488 32.9401 102.732 32.3786 102.732 31.6787C102.732 30.8079 102.407 30.1488 101.756 29.7012C101.113 29.2536 100.169 29.0298 98.9238 29.0298V26.7471C99.4691 26.7471 99.9574 26.6942 100.389 26.5884C100.82 26.4744 101.186 26.3117 101.487 26.1001C101.788 25.8804 102.02 25.6118 102.183 25.2944C102.346 24.9689 102.427 24.5905 102.427 24.1592C102.427 23.8662 102.374 23.5936 102.269 23.3413C102.171 23.0809 102.024 22.8571 101.829 22.6699C101.634 22.4827 101.39 22.3363 101.097 22.2305C100.804 22.1247 100.466 22.0718 100.083 22.0718C99.5789 22.0718 99.1354 22.1613 98.7529 22.3403C98.3704 22.5112 98.0449 22.7513 97.7764 23.0605C97.516 23.3698 97.3166 23.7319 97.1782 24.147C97.048 24.562 96.9829 25.0055 96.9829 25.4775H94.7002V20.0698H96.9829V21.9497C97.0806 21.5998 97.2433 21.2905 97.4712 21.022C97.7072 20.7534 97.9798 20.5296 98.2891 20.3506C98.5983 20.1634 98.932 20.0251 99.29 19.9355C99.6481 19.846 100.002 19.8013 100.352 19.8013C100.971 19.8013 101.556 19.9071 102.11 20.1187C102.663 20.3221 103.152 20.6151 103.575 20.9976C103.998 21.3719 104.332 21.8276 104.576 22.3647C104.828 22.9019 104.954 23.5 104.954 24.1592C104.954 24.6475 104.881 25.1032 104.734 25.5264C104.596 25.9414 104.393 26.3076 104.124 26.625C103.855 26.9342 103.526 27.1865 103.135 27.3818C102.753 27.5771 102.317 27.6911 101.829 27.7236C102.374 27.7725 102.859 27.9149 103.282 28.1509C103.713 28.3869 104.075 28.6839 104.368 29.042C104.661 29.4001 104.881 29.807 105.027 30.2627C105.182 30.7184 105.259 31.1904 105.259 31.6787ZM112.676 33.7295C113.14 33.3633 113.519 32.9971 113.812 32.6309C114.104 32.2565 114.332 31.7397 114.495 31.0806C114.666 30.4132 114.784 29.5262 114.849 28.4194C114.914 27.3045 114.947 25.8315 114.947 24.0005V20.0698H122.198V33.7295H124.053V39.894H121.771V36H114.947V39.894H112.676V33.7295ZM117.474 24.0005C117.474 25.4328 117.457 26.6616 117.425 27.687C117.392 28.7124 117.311 29.5994 117.181 30.3481C117.059 31.0968 116.867 31.7397 116.607 32.2769C116.355 32.8058 115.993 33.29 115.521 33.7295H119.671V22.3525H117.474V24.0005ZM140.796 36L139.649 32.2036H134.375L133.252 36H130.604L135.572 20.0698H138.477L143.445 36H140.796ZM135.047 29.9697H138.978L137.024 23.4023L135.047 29.9697ZM161.324 25.8804H159.065V22.3525H156.917V33.7295H159.444V36H151.875V33.7295H154.39V22.3525H152.217V25.8804H149.971V20.0698H161.324V25.8804ZM179.996 31.2515C179.996 32.814 179.511 33.998 178.543 34.8037C177.575 35.6012 176.215 36 174.466 36H169.217V20.0698H171.744V26.5273H174.49C176.224 26.5273 177.575 26.9139 178.543 27.687C179.511 28.4601 179.996 29.6483 179.996 31.2515ZM177.469 31.2759C177.469 30.4458 177.2 29.8273 176.663 29.4204C176.134 29.0054 175.41 28.7979 174.49 28.7979H171.744V33.7295H174.49C175.41 33.7295 176.134 33.526 176.663 33.1191C177.2 32.7041 177.469 32.0897 177.469 31.2759Z" fill="white"/>
</svg>
