<svg width="31" height="30" viewBox="0 0 31 30" fill="none" xmlns="http://www.w3.org/2000/svg">
<g id="Iconly/Curved/Light/Filter">
<g id="Filter">
<path id="Stroke 1" d="M13.5417 21.5557H5.1814" stroke="black" stroke-width="1.5" stroke-linecap="round" stroke-linejoin="round"/>
<path id="Stroke 3" fill-rule="evenodd" clip-rule="evenodd" d="M18.7875 21.5568C18.7875 24.109 19.667 24.959 22.3031 24.959C24.9393 24.959 25.8188 24.109 25.8188 21.5568C25.8188 19.0046 24.9393 18.1546 22.3031 18.1546C19.667 18.1546 18.7875 19.0046 18.7875 21.5568Z" stroke="black" stroke-width="1.5" stroke-linecap="round" stroke-linejoin="round"/>
<path id="Stroke 5" d="M17.4591 8.44488H25.8183" stroke="black" stroke-width="1.5" stroke-linecap="round" stroke-linejoin="round"/>
<path id="Stroke 7" fill-rule="evenodd" clip-rule="evenodd" d="M12.2132 8.44321C12.2132 5.89209 11.3337 5.04097 8.69759 5.04097C6.06027 5.04097 5.18079 5.89209 5.18079 8.44321C5.18079 10.9954 6.06027 11.8454 8.69759 11.8454C11.3337 11.8454 12.2132 10.9954 12.2132 8.44321Z" stroke="black" stroke-width="1.5" stroke-linecap="round" stroke-linejoin="round"/>
</g>
</g>
</svg>
